<?xml version="1.0" encoding="UTF-8" standalone="no" ?>
<!DOCTYPE svg PUBLIC "-//W3C//DTD SVG 1.1//EN" "http://www.w3.org/Graphics/SVG/1.1/DTD/svg11.dtd">
<svg xmlns="http://www.w3.org/2000/svg" xmlns:xlink="http://www.w3.org/1999/xlink" version="1.1" width="640" height="480" viewBox="0 0 640 480" xml:space="preserve">
<desc>Created with Fabric.js 3.6.6</desc>
<defs>
</defs>
<g transform="matrix(5.44 0 0 5.44 321.55 242.95)"  >
<g style=""   >
		<g transform="matrix(3.51 0 0 3.51 -27.91 -0.09)"  >
<linearGradient id="SVGID_6" gradientUnits="userSpaceOnUse" gradientTransform="matrix(1 0 0 1 0 0)"  x1="35.3857" y1="19.318" x2="35.8857" y2="19.318">
<stop offset="0%" style="stop-color:rgb(253,55,126);stop-opacity: 1"/>
<stop offset="100%" style="stop-color:rgb(33,37,41);stop-opacity: 1"/>
</linearGradient>
<path style="stroke: none; stroke-width: 1; stroke-dasharray: none; stroke-linecap: butt; stroke-dashoffset: 0; stroke-linejoin: miter; stroke-miterlimit: 4; fill: url(#SVGID_6); fill-rule: nonzero; opacity: 1;"  transform=" translate(-8.18, -10.17)" d="M 14.092 0.858 C 14.7507 0.858 15.288 1.07467 15.704 1.508 C 16.1373 1.94133 16.354 2.50467 16.354 3.198 V 17.108 C 16.354 17.8187 16.146 18.3907 15.73 18.824 C 15.314 19.2573 14.7767 19.474 14.118 19.474 C 13.338 19.474 12.7487 19.214 12.35 18.694 L 4.446 8.84 V 17.108 C 4.446 17.8187 4.24667 18.3907 3.848 18.824 C 3.44933 19.2573 2.912 19.474 2.236 19.474 C 1.57733 19.474 1.04 19.2573 0.624 18.824 C 0.208 18.3907 0 17.8187 0 17.108 V 3.198 C 0 2.50467 0.208 1.94133 0.624 1.508 C 1.04 1.07467 1.57733 0.858 2.236 0.858 C 2.98133 0.858 3.562 1.118 3.978 1.638 L 11.882 11.466 V 3.198 C 11.882 2.48733 12.0813 1.924 12.48 1.508 C 12.896 1.07467 13.4333 0.858 14.092 0.858 Z" stroke-linecap="round" />
</g>
		<g transform="matrix(3.51 0 0 3.51 33.8 9.49)"  >
<linearGradient id="SVGID_7" gradientUnits="userSpaceOnUse" gradientTransform="matrix(1 0 0 1 0 0)"  x1="35.3857" y1="19.318" x2="35.8857" y2="19.318">
<stop offset="0%" style="stop-color:rgb(253,55,126);stop-opacity: 1"/>
<stop offset="100%" style="stop-color:rgb(33,37,41);stop-opacity: 1"/>
</linearGradient>
<path style="stroke: none; stroke-width: 1; stroke-dasharray: none; stroke-linecap: butt; stroke-dashoffset: 0; stroke-linejoin: miter; stroke-miterlimit: 4; fill: url(#SVGID_7); fill-rule: nonzero; opacity: 1;"  transform=" translate(-25.76, -12.9)" d="M 29.9477 6.266 C 30.6584 6.266 31.2217 6.45667 31.6377 6.838 C 32.0537 7.21933 32.2617 7.73933 32.2617 8.398 V 17.394 C 32.2617 18.0007 32.0451 18.5033 31.6117 18.902 C 31.1784 19.2833 30.6151 19.474 29.9217 19.474 C 29.2977 19.474 28.7864 19.3093 28.3877 18.98 C 27.9891 18.6333 27.7811 18.174 27.7637 17.602 C 27.3651 18.226 26.8537 18.7027 26.2297 19.032 C 25.6231 19.3613 24.9211 19.526 24.1237 19.526 C 22.4771 19.526 21.2551 19.0753 20.4577 18.174 C 19.6604 17.2553 19.2617 15.8687 19.2617 14.014 V 8.398 C 19.2617 7.73933 19.4697 7.21933 19.8857 6.838 C 20.3017 6.45667 20.8651 6.266 21.5757 6.266 C 22.2864 6.266 22.8497 6.45667 23.2657 6.838 C 23.6817 7.21933 23.8897 7.73933 23.8897 8.398 V 14.118 C 23.8897 15.366 24.4271 15.99 25.5017 15.99 C 26.1257 15.99 26.6371 15.7647 27.0357 15.314 C 27.4344 14.8633 27.6337 14.274 27.6337 13.546 V 8.398 C 27.6337 7.73933 27.8417 7.21933 28.2577 6.838 C 28.6737 6.45667 29.2371 6.266 29.9477 6.266 Z" stroke-linecap="round" />
</g>
</g>
</g>
</svg>